<?xml version="1.0" encoding="UTF-8" standalone="no"?>
<svg width="16px" height="16px" viewBox="0 0 16 16" version="1.1" xmlns="http://www.w3.org/2000/svg" xmlns:xlink="http://www.w3.org/1999/xlink">
    <!-- Generator: Sketch 3.6.1 (26313) - http://www.bohemiancoding.com/sketch -->
    <title>icon</title>
    <desc>Created with Sketch.</desc>
    <defs></defs>
    <g id="Page-1" stroke="none" stroke-width="1" fill="none" fill-rule="evenodd">
        <g id="icon">
            <g id="art" transform="translate(-1.000000, -1.000000)">
                <g id="border-evenly-distributed">
                    <g id="left">
                        <path d="M0,12 L2,12 L2,14 L0,14 L0,12 Z M0,14 L2,14 L2,16 L0,16 L0,14 Z M2,14 L4,14 L4,16 L2,16 L2,14 Z M0,16 L2,16 L2,18 L0,18 L0,16 Z M2,16 L4,16 L4,18 L2,18 L2,16 Z M4,16 L6,16 L6,18 L4,18 L4,16 Z M6,16 L8,16 L8,18 L6,18 L6,16 Z M0,10 L2,10 L2,12 L0,12 L0,10 Z M2,12 L4,12 L4,14 L2,14 L2,12 Z M4,14 L6,14 L6,16 L4,16 L4,14 Z" id="L" fill="#9B59B6"></path>
                        <path d="M2,10 L4,10 L4,12 L2,12 L2,10 Z M2,12 L4,12 L4,14 L2,14 L2,12 Z M0,8 L2,8 L2,10 L0,10 L0,8 Z M0,10 L2,10 L2,12 L0,12 L0,10 Z M4,12 L6,12 L6,14 L4,14 L4,12 Z M4,14 L6,14 L6,16 L4,16 L4,14 Z M6,14 L8,14 L8,16 L6,16 L6,14 Z M6,16 L8,16 L8,18 L6,18 L6,16 Z M8,16 L10,16 L10,18 L8,18 L8,16 Z M10,16 L12,16 L12,18 L10,18 L10,16 Z M2,8 L4,8 L4,10 L2,10 L2,8 Z M0,6 L2,6 L2,8 L0,8 L0,6 Z M4,10 L6,10 L6,12 L4,12 L4,10 Z M6,12 L8,12 L8,14 L6,14 L6,12 Z M8,14 L10,14 L10,16 L8,16 L8,14 Z" id="L-Darker" fill="#8E44AD"></path>
                        <path d="M4,8 L6,8 L6,10 L4,10 L4,8 Z M4,10 L6,10 L6,12 L4,12 L4,10 Z M2,6 L4,6 L4,8 L2,8 L2,6 Z M2,8 L4,8 L4,10 L2,10 L2,8 Z M0,4 L2,4 L2,6 L0,6 L0,4 Z M0,6 L2,6 L2,8 L0,8 L0,6 Z M6,10 L8,10 L8,12 L6,12 L6,10 Z M6,12 L8,12 L8,14 L6,14 L6,12 Z M8,12 L10,12 L10,14 L8,14 L8,12 Z M8,14 L10,14 L10,16 L8,16 L8,14 Z M10,14 L12,14 L12,16 L10,16 L10,14 Z M10,16 L12,16 L12,18 L10,18 L10,16 Z M12,16 L14,16 L14,18 L12,18 L12,16 Z M14,16 L16,16 L16,18 L14,18 L14,16 Z M4,6 L6,6 L6,8 L4,8 L4,6 Z M2,4 L4,4 L4,6 L2,6 L2,4 Z M0,2 L2,2 L2,4 L0,4 L0,2 Z M6,8 L8,8 L8,10 L6,10 L6,8 Z M8,10 L10,10 L10,12 L8,12 L8,10 Z M10,12 L12,12 L12,14 L10,14 L10,12 Z M12,14 L14,14 L14,16 L12,16 L12,14 Z" id="C" fill="#3498DB"></path>
                        <path d="M6,8 L8,8 L8,10 L6,10 L6,8 Z M4,6 L6,6 L6,8 L4,8 L4,6 Z M2,4 L4,4 L4,6 L2,6 L2,4 Z M0,2 L2,2 L2,4 L0,4 L0,2 Z M8,8 L10,8 L10,10 L8,10 L8,8 Z M8,10 L10,10 L10,12 L8,12 L8,10 Z M10,10 L12,10 L12,12 L10,12 L10,10 Z M10,12 L12,12 L12,14 L10,14 L10,12 Z M12,12 L14,12 L14,14 L12,14 L12,12 Z M12,14 L14,14 L14,16 L12,16 L12,14 Z M14,14 L16,14 L16,16 L14,16 L14,14 Z M14,16 L16,16 L16,18 L14,18 L14,16 Z M16,16 L18,16 L18,18 L16,18 L16,16 Z M6,6 L8,6 L8,8 L6,8 L6,6 Z M4,4 L6,4 L6,6 L4,6 L4,4 Z M2,2 L4,2 L4,4 L2,4 L2,2 Z M0,0 L2,0 L2,2 L0,2 L0,0 Z M10,8 L12,8 L12,10 L10,10 L10,8 Z M12,10 L14,10 L14,12 L12,12 L12,10 Z M14,12 L16,12 L16,14 L14,14 L14,12 Z M16,14 L18,14 L18,16 L16,16 L16,14 Z M8,6 L10,6 L10,8 L8,8 L8,6 Z M6,4 L8,4 L8,6 L6,6 L6,4 Z M4,2 L6,2 L6,4 L4,4 L4,2 Z M2,0 L4,0 L4,2 L2,2 L2,0 Z" id="C-Darker" fill="#2980B9"></path>
                    </g>
                    <g id="bottom" transform="translate(2.000000, 0.000000)" fill="#1ABC9C">
                        <path d="M14,14 L16,14 L16,16 L14,16 L14,14 Z M6,6 L8,6 L8,8 L6,8 L6,6 Z M8,6 L10,6 L10,8 L8,8 L8,6 Z M8,8 L10,8 L10,10 L8,10 L8,8 Z M10,10 L12,10 L12,12 L10,12 L10,10 Z M10,8 L12,8 L12,10 L10,10 L10,8 Z M12,12 L14,12 L14,14 L12,14 L12,12 Z M14,12 L16,12 L16,14 L14,14 L14,12 Z M12,10 L14,10 L14,12 L12,12 L12,10 Z M6,4 L8,4 L8,6 L6,6 L6,4 Z M4,4 L6,4 L6,6 L4,6 L4,4 Z M4,2 L6,2 L6,4 L4,4 L4,2 Z M2,2 L4,2 L4,4 L2,4 L2,2 Z M2,0 L4,0 L4,2 L2,2 L2,0 Z M10,6 L12,6 L12,8 L10,8 L10,6 Z M12,8 L14,8 L14,10 L12,10 L12,8 Z M14,10 L16,10 L16,12 L14,12 L14,10 Z M8,4 L10,4 L10,6 L8,6 L8,4 Z M6,2 L8,2 L8,4 L6,4 L6,2 Z M4,0 L6,0 L6,2 L4,2 L4,0 Z M0,0 L2,0 L2,2 L0,2 L0,0 Z" id="T"></path>
                    </g>
                    <g id="right" transform="translate(6.000000, 0.000000)">
                        <path d="M4,4 L6,4 L6,6 L4,6 L4,4 Z M6,6 L8,6 L8,8 L6,8 L6,6 Z M6,4 L8,4 L8,6 L6,6 L6,4 Z M10,10 L12,10 L12,12 L10,12 L10,10 Z M8,8 L10,8 L10,10 L8,10 L8,8 Z M10,8 L12,8 L12,10 L10,10 L10,8 Z M8,6 L10,6 L10,8 L8,8 L8,6 Z M4,2 L6,2 L6,4 L4,4 L4,2 Z M2,2 L4,2 L4,4 L2,4 L2,2 Z M2,0 L4,0 L4,2 L2,2 L2,0 Z M8,4 L10,4 L10,6 L8,6 L8,4 Z M10,6 L12,6 L12,8 L10,8 L10,6 Z M6,2 L8,2 L8,4 L6,4 L6,2 Z M4,0 L6,0 L6,2 L4,2 L4,0 Z M0,0 L2,0 L2,2 L0,2 L0,0 Z" id="T-darker" fill="#16A085"></path>
                        <path d="M6,2 L8,2 L8,4 L6,4 L6,2 Z M10,6 L12,6 L12,8 L10,8 L10,6 Z M8,4 L10,4 L10,6 L8,6 L8,4 Z M8,2 L10,2 L10,4 L8,4 L8,2 Z M10,2 L12,2 L12,4 L10,4 L10,2 Z M10,4 L12,4 L12,6 L10,6 L10,4 Z M6,0 L8,0 L8,2 L6,2 L6,0 Z M8,0 L10,0 L10,2 L8,2 L8,0 Z M4,0 L6,0 L6,2 L4,2 L4,0 Z" id="G" fill="#2ECC71"></path>
                        <path d="M10,0 L12,0 L12,2 L10,2 L10,0 Z M10,2 L12,2 L12,4 L10,4 L10,2 Z M8,0 L10,0 L10,2 L8,2 L8,0 Z" id="Combined-Shape" fill="#27AE60"></path>
                    </g>
                    <g id="top"></g>
                </g>
                <rect id="backdrop" fill="#ECF0F1" x="3" y="3" width="12" height="12"></rect>
                <path d="M7.5,4 L6,4 L6,6 L7.5,6 L10,6 L12,6 L12,4 L10,4 L7.5,4 Z M8,12 L10,12 L10,14 L8,14 L8,12 Z M6,12 L8,12 L8,14 L6,14 L6,12 Z M6,10 L8,10 L8,12 L6,12 L6,10 Z M6,8 L8,8 L8,10 L6,10 L6,8 Z M6,6 L8,6 L8,8 L6,8 L6,6 Z M8,8 L10,8 L10,10 L8,10 L8,8 Z M10,12 L12,12 L12,14 L10,14 L10,12 Z" id="Combined-Shape" fill="#34495E"></path>
            </g>
        </g>
    </g>
</svg>