<?xml version="1.0" encoding="UTF-8" standalone="no"?>
<svg width="2px" height="8px" viewBox="0 0 2 8" version="1.1" xmlns="http://www.w3.org/2000/svg" xmlns:xlink="http://www.w3.org/1999/xlink">
    <!-- Generator: Sketch 39.1 (31720) - http://www.bohemiancoding.com/sketch -->
    <title>border-vertical</title>
    <desc>Created with Sketch.</desc>
    <defs></defs>
    <g id="Page-1" stroke="none" stroke-width="1" fill="none" fill-rule="evenodd">
        <g id="border-vertical" fill="#FFFFFF">
            <path d="M1,1 L2,1 L2,3 L1,3 L1,1 Z M0,7 L2,7 L2,8 L0,8 L0,7 Z M0,5 L1,5 L1,7 L0,7 L0,5 Z M0,0 L2,0 L2,1 L0,1 L0,0 Z" id="wisteria-middle-left" fill-opacity="0.25"></path>
            <path d="M1,3 L2,3 L2,5 L1,5 L1,3 Z M1,5 L2,5 L2,7 L1,7 L1,5 Z M0,1 L1,1 L1,3 L0,3 L0,1 Z M0,3 L1,3 L1,5 L0,5 L0,3 Z" id="peter-river-middle-left" fill-opacity="0.75"></path>
        </g>
    </g>
</svg>