<?xml version="1.0" encoding="UTF-8" standalone="no"?>
<svg width="16px" height="2px" viewBox="0 0 16 2" version="1.1" xmlns="http://www.w3.org/2000/svg" xmlns:xlink="http://www.w3.org/1999/xlink">
    <!-- Generator: Sketch 39.1 (31720) - http://www.bohemiancoding.com/sketch -->
    <title>border-t</title>
    <desc>Created with Sketch.</desc>
    <defs></defs>
    <g id="Page-1" stroke="none" stroke-width="1" fill="none" fill-rule="evenodd">
        <g id="border" transform="translate(-8.000000, 0.000000)" fill="#FFFFFF">
            <path d="M1,3 L2,3 L2,5 L1,5 L1,3 Z M0,1 L1,1 L1,3 L0,3 L0,1 Z M30,13 L31,13 L31,14 L30,14 L30,13 Z M1,2 L2,2 L2,3 L1,3 L1,2 Z M2,1 L3,1 L3,2 L2,2 L2,1 Z M0,0 L1,0 L1,1 L0,1 L0,0 Z M1,1 L2,1 L2,2 L1,2 L1,1 Z" id="belize-hole" fill-opacity="0.25"></path>
            <path d="M31,13 L32,13 L32,15 L31,15 L31,13 Z M30,11 L31,11 L31,13 L30,13 L30,11 Z M31,11 L32,11 L32,13 L31,13 L31,11 Z M30,9 L31,9 L31,11 L30,11 L30,9 Z M21,1 L23,1 L23,2 L21,2 L21,1 Z M19,1 L21,1 L21,2 L19,2 L19,1 Z M19,0 L21,0 L21,1 L19,1 L19,0 Z M17,0 L19,0 L19,1 L17,1 L17,0 Z M13,1 L15,1 L15,2 L13,2 L13,1 Z M11,1 L13,1 L13,2 L11,2 L11,1 Z M11,0 L13,0 L13,1 L11,1 L11,0 Z M9,0 L11,0 L11,1 L9,1 L9,0 Z M5,1 L7,1 L7,2 L5,2 L5,1 Z M3,1 L5,1 L5,2 L3,2 L3,1 Z M3,0 L5,0 L5,1 L3,1 L3,0 Z M1,0 L3,0 L3,1 L1,1 L1,0 Z" id="turquoise" fill-opacity="0.75"></path>
            <path d="M31,9 L32,9 L32,11 L31,11 L31,9 Z M30,7 L31,7 L31,9 L30,9 L30,7 Z M31,7 L32,7 L32,9 L31,9 L31,7 Z M30,5 L31,5 L31,7 L30,7 L30,5 Z M9,1 L11,1 L11,2 L9,2 L9,1 Z M7,1 L9,1 L9,2 L7,2 L7,1 Z M7,0 L9,0 L9,1 L7,1 L7,0 Z M5,0 L7,0 L7,1 L5,1 L5,0 Z M17,1 L19,1 L19,2 L17,2 L17,1 Z M15,1 L17,1 L17,2 L15,2 L15,1 Z M15,0 L17,0 L17,1 L15,1 L15,0 Z M13,0 L15,0 L15,1 L13,1 L13,0 Z M25,1 L27,1 L27,2 L25,2 L25,1 Z M23,1 L25,1 L25,2 L23,2 L23,1 Z M23,0 L25,0 L25,1 L23,1 L23,0 Z M21,0 L23,0 L23,1 L21,1 L21,0 Z" id="green-sea" fill-opacity="0.25"></path>
        </g>
    </g>
</svg>