<?xml version="1.0" encoding="UTF-8" standalone="no"?>
<svg width="2px" height="8px" viewBox="0 0 2 8" version="1.1" xmlns="http://www.w3.org/2000/svg" xmlns:xlink="http://www.w3.org/1999/xlink">
    <!-- Generator: Sketch 39.1 (31720) - http://www.bohemiancoding.com/sketch -->
    <title>border-l</title>
    <desc>Created with Sketch.</desc>
    <defs></defs>
    <g id="Page-1" stroke="none" stroke-width="1" fill="none" fill-rule="evenodd">
        <g id="border" transform="translate(0.000000, -2.000000)" fill="#FFFFFF">
            <path d="M1,9 L2,9 L2,11 L1,11 L1,9 Z M1,11 L2,11 L2,13 L1,13 L1,11 Z M0,7 L1,7 L1,9 L0,9 L0,7 Z M0,9 L1,9 L1,11 L0,11 L0,9 Z" id="wisteria-middle-left" fill-opacity="0.25"></path>
            <path d="M1,5 L2,5 L2,7 L1,7 L1,5 Z M1,7 L2,7 L2,9 L1,9 L1,7 Z M0,3 L1,3 L1,5 L0,5 L0,3 Z M0,5 L1,5 L1,7 L0,7 L0,5 Z" id="peter-river-middle-left" fill-opacity="0.75"></path>
            <path d="M1,3 L2,3 L2,5 L1,5 L1,3 Z M0,1 L1,1 L1,3 L0,3 L0,1 Z M30,13 L31,13 L31,14 L30,14 L30,13 Z M1,2 L2,2 L2,3 L1,3 L1,2 Z M2,1 L3,1 L3,2 L2,2 L2,1 Z M0,0 L1,0 L1,1 L0,1 L0,0 Z M1,1 L2,1 L2,2 L1,2 L1,1 Z" id="belize-hole" fill-opacity="0.25"></path>
            <path d="M31,13 L32,13 L32,15 L31,15 L31,13 Z M30,11 L31,11 L31,13 L30,13 L30,11 Z M31,11 L32,11 L32,13 L31,13 L31,11 Z M30,9 L31,9 L31,11 L30,11 L30,9 Z M21,1 L23,1 L23,2 L21,2 L21,1 Z M19,1 L21,1 L21,2 L19,2 L19,1 Z M19,0 L21,0 L21,1 L19,1 L19,0 Z M17,0 L19,0 L19,1 L17,1 L17,0 Z M13,1 L15,1 L15,2 L13,2 L13,1 Z M11,1 L13,1 L13,2 L11,2 L11,1 Z M11,0 L13,0 L13,1 L11,1 L11,0 Z M9,0 L11,0 L11,1 L9,1 L9,0 Z M5,1 L7,1 L7,2 L5,2 L5,1 Z M3,1 L5,1 L5,2 L3,2 L3,1 Z M3,0 L5,0 L5,1 L3,1 L3,0 Z M1,0 L3,0 L3,1 L1,1 L1,0 Z" id="turquoise" fill-opacity="0.75"></path>
        </g>
    </g>
</svg>