<?xml version="1.0" encoding="UTF-8" standalone="no"?>
<svg width="18px" height="2px" viewBox="0 0 18 2" version="1.1" xmlns="http://www.w3.org/2000/svg" xmlns:xlink="http://www.w3.org/1999/xlink">
    <!-- Generator: Sketch 39.1 (31720) - http://www.bohemiancoding.com/sketch -->
    <title>border-t</title>
    <desc>Created with Sketch.</desc>
    <defs></defs>
    <g id="Page-1" stroke="none" stroke-width="1" fill="none" fill-rule="evenodd">
        <g id="border" transform="translate(-14.000000, -14.000000)" fill="#FFFFFF">
            <path d="M3,14 L5,14 L5,15 L3,15 L3,14 Z M5,14 L7,14 L7,15 L5,15 L5,14 Z M5,15 L7,15 L7,16 L5,16 L5,15 Z M7,15 L9,15 L9,16 L7,16 L7,15 Z M11,14 L13,14 L13,15 L11,15 L11,14 Z M13,14 L15,14 L15,15 L13,15 L13,14 Z M13,15 L15,15 L15,16 L13,16 L13,15 Z M15,15 L17,15 L17,16 L15,16 L15,15 Z M19,14 L21,14 L21,15 L19,15 L19,14 Z M21,14 L23,14 L23,15 L21,15 L21,14 Z M21,15 L23,15 L23,16 L21,16 L21,15 Z M23,15 L25,15 L25,16 L23,16 L23,15 Z M27,14 L29,14 L29,15 L27,15 L27,14 Z M29,14 L31,14 L31,15 L29,15 L29,14 Z M29,15 L31,15 L31,16 L29,16 L29,15 Z M31,15 L32,15 L32,16 L31,16 L31,15 Z" id="wisteria-bottom-center" fill-opacity="0.25"></path>
            <path d="M7,14 L9,14 L9,15 L7,15 L7,14 Z M9,14 L11,14 L11,15 L9,15 L9,14 Z M9,15 L11,15 L11,16 L9,16 L9,15 Z M11,15 L13,15 L13,16 L11,16 L11,15 Z M15,14 L17,14 L17,15 L15,15 L15,14 Z M17,14 L19,14 L19,15 L17,15 L17,14 Z M17,15 L19,15 L19,16 L17,16 L17,15 Z M19,15 L21,15 L21,16 L19,16 L19,15 Z M23,14 L25,14 L25,15 L23,15 L23,14 Z M25,14 L27,14 L27,15 L25,15 L25,14 Z M25,15 L27,15 L27,16 L25,16 L25,15 Z M27,15 L29,15 L29,16 L27,16 L27,15 Z" id="peter-river-bottom-center" fill-opacity="0.75"></path>
            <path d="M31,13 L32,13 L32,15 L31,15 L31,13 Z M30,11 L31,11 L31,13 L30,13 L30,11 Z M31,11 L32,11 L32,13 L31,13 L31,11 Z M30,9 L31,9 L31,11 L30,11 L30,9 Z M21,1 L23,1 L23,2 L21,2 L21,1 Z M19,1 L21,1 L21,2 L19,2 L19,1 Z M19,0 L21,0 L21,1 L19,1 L19,0 Z M17,0 L19,0 L19,1 L17,1 L17,0 Z M13,1 L15,1 L15,2 L13,2 L13,1 Z M11,1 L13,1 L13,2 L11,2 L11,1 Z M11,0 L13,0 L13,1 L11,1 L11,0 Z M9,0 L11,0 L11,1 L9,1 L9,0 Z M5,1 L7,1 L7,2 L5,2 L5,1 Z M3,1 L5,1 L5,2 L3,2 L3,1 Z M3,0 L5,0 L5,1 L3,1 L3,0 Z M1,0 L3,0 L3,1 L1,1 L1,0 Z" id="turquoise" fill-opacity="0.75"></path>
        </g>
    </g>
</svg>