<?xml version="1.0" encoding="UTF-8" standalone="no"?>
<svg width="32px" height="16px" viewBox="0 0 32 16" version="1.1" xmlns="http://www.w3.org/2000/svg" xmlns:xlink="http://www.w3.org/1999/xlink">
    <!-- Generator: Sketch 39.1 (31720) - http://www.bohemiancoding.com/sketch -->
    <title>border</title>
    <desc>Created with Sketch.</desc>
    <defs></defs>
    <g id="Page-1" stroke="none" stroke-width="1" fill="none" fill-rule="evenodd">
        <g id="border" fill="#FFFFFF">
            <path d="M0,11 L1,11 L1,13 L0,13 L0,11 Z M0,13 L1,13 L1,15 L0,15 L0,13 Z M1,13 L2,13 L2,14 L3,14 L3,15 L1,15 L1,13 Z M0,15 L1,15 L1,16 L0,16 L0,15 Z M1,15 L3,15 L3,16 L1,16 L1,15 Z M3,15 L5,15 L5,16 L3,16 L3,15 Z" id="amethyst" fill-opacity="0.75"></path>
            <path d="M1,9 L2,9 L2,11 L1,11 L1,9 Z M1,11 L2,11 L2,13 L1,13 L1,11 Z M0,7 L1,7 L1,9 L0,9 L0,7 Z M0,9 L1,9 L1,11 L0,11 L0,9 Z" id="wisteria-middle-left" fill-opacity="0.25"></path>
            <path d="M3,14 L5,14 L5,15 L3,15 L3,14 Z M5,14 L7,14 L7,15 L5,15 L5,14 Z M5,15 L7,15 L7,16 L5,16 L5,15 Z M7,15 L9,15 L9,16 L7,16 L7,15 Z M11,14 L13,14 L13,15 L11,15 L11,14 Z M13,14 L15,14 L15,15 L13,15 L13,14 Z M13,15 L15,15 L15,16 L13,16 L13,15 Z M15,15 L17,15 L17,16 L15,16 L15,15 Z M19,14 L21,14 L21,15 L19,15 L19,14 Z M21,14 L23,14 L23,15 L21,15 L21,14 Z M21,15 L23,15 L23,16 L21,16 L21,15 Z M23,15 L25,15 L25,16 L23,16 L23,15 Z M27,14 L29,14 L29,15 L27,15 L27,14 Z M29,14 L31,14 L31,15 L29,15 L29,14 Z M29,15 L31,15 L31,16 L29,16 L29,15 Z M31,15 L32,15 L32,16 L31,16 L31,15 Z" id="wisteria-bottom-center" fill-opacity="0.25"></path>
            <path d="M1,5 L2,5 L2,7 L1,7 L1,5 Z M1,7 L2,7 L2,9 L1,9 L1,7 Z M0,3 L1,3 L1,5 L0,5 L0,3 Z M0,5 L1,5 L1,7 L0,7 L0,5 Z" id="peter-river-middle-left" fill-opacity="0.75"></path>
            <path d="M7,14 L9,14 L9,15 L7,15 L7,14 Z M9,14 L11,14 L11,15 L9,15 L9,14 Z M9,15 L11,15 L11,16 L9,16 L9,15 Z M11,15 L13,15 L13,16 L11,16 L11,15 Z M15,14 L17,14 L17,15 L15,15 L15,14 Z M17,14 L19,14 L19,15 L17,15 L17,14 Z M17,15 L19,15 L19,16 L17,16 L17,15 Z M19,15 L21,15 L21,16 L19,16 L19,15 Z M23,14 L25,14 L25,15 L23,15 L23,14 Z M25,14 L27,14 L27,15 L25,15 L25,14 Z M25,15 L27,15 L27,16 L25,16 L25,15 Z M27,15 L29,15 L29,16 L27,16 L27,15 Z" id="peter-river-bottom-center" fill-opacity="0.75"></path>
            <path d="M1,3 L2,3 L2,5 L1,5 L1,3 Z M0,1 L1,1 L1,3 L0,3 L0,1 Z M30,13 L31,13 L31,14 L30,14 L30,13 Z M1,2 L2,2 L2,3 L1,3 L1,2 Z M2,1 L3,1 L3,2 L2,2 L2,1 Z M0,0 L1,0 L1,1 L0,1 L0,0 Z M1,1 L2,1 L2,2 L1,2 L1,1 Z" id="belize-hole" fill-opacity="0.25"></path>
            <path d="M31,13 L32,13 L32,15 L31,15 L31,13 Z M30,11 L31,11 L31,13 L30,13 L30,11 Z M31,11 L32,11 L32,13 L31,13 L31,11 Z M30,9 L31,9 L31,11 L30,11 L30,9 Z M21,1 L23,1 L23,2 L21,2 L21,1 Z M19,1 L21,1 L21,2 L19,2 L19,1 Z M19,0 L21,0 L21,1 L19,1 L19,0 Z M17,0 L19,0 L19,1 L17,1 L17,0 Z M13,1 L15,1 L15,2 L13,2 L13,1 Z M11,1 L13,1 L13,2 L11,2 L11,1 Z M11,0 L13,0 L13,1 L11,1 L11,0 Z M9,0 L11,0 L11,1 L9,1 L9,0 Z M5,1 L7,1 L7,2 L5,2 L5,1 Z M3,1 L5,1 L5,2 L3,2 L3,1 Z M3,0 L5,0 L5,1 L3,1 L3,0 Z M1,0 L3,0 L3,1 L1,1 L1,0 Z" id="turquoise" fill-opacity="0.75"></path>
            <path d="M31,9 L32,9 L32,11 L31,11 L31,9 Z M30,7 L31,7 L31,9 L30,9 L30,7 Z M31,7 L32,7 L32,9 L31,9 L31,7 Z M30,5 L31,5 L31,7 L30,7 L30,5 Z M9,1 L11,1 L11,2 L9,2 L9,1 Z M7,1 L9,1 L9,2 L7,2 L7,1 Z M7,0 L9,0 L9,1 L7,1 L7,0 Z M5,0 L7,0 L7,1 L5,1 L5,0 Z M17,1 L19,1 L19,2 L17,2 L17,1 Z M15,1 L17,1 L17,2 L15,2 L15,1 Z M15,0 L17,0 L17,1 L15,1 L15,0 Z M13,0 L15,0 L15,1 L13,1 L13,0 Z M25,1 L27,1 L27,2 L25,2 L25,1 Z M23,1 L25,1 L25,2 L23,2 L23,1 Z M23,0 L25,0 L25,1 L23,1 L23,0 Z M21,0 L23,0 L23,1 L21,1 L21,0 Z" id="green-sea" fill-opacity="0.25"></path>
            <path d="M27,1 L29,1 L29,2 L27,2 L27,1 Z M31,5 L32,5 L32,7 L31,7 L31,5 Z M30,3 L31,3 L31,5 L30,5 L30,3 Z M29,2 L29,1 L31,1 L31,3 L30,3 L30.0000001,2 L29,2 Z M31,3 L32,3 L32,5 L31,5 L31,3 Z M27,0 L29,0 L29,1 L27,1 L27,0 Z M25,0 L27,0 L27,1 L25,1 L25,0 Z" id="emerald" fill-opacity="0.75"></path>
            <path d="M29,0 L32,0 L32,1 L29,1 L29,0 Z M31,1 L32,1 L32,3 L31,3 L31,1 Z" id="nephritis" fill-opacity="0.25"></path>
        </g>
    </g>
</svg>