<?xml version="1.0" encoding="UTF-8" standalone="no"?>
<svg width="8px" height="2px" viewBox="0 0 8 2" version="1.1" xmlns="http://www.w3.org/2000/svg" xmlns:xlink="http://www.w3.org/1999/xlink">
    <!-- Generator: Sketch 39.1 (31720) - http://www.bohemiancoding.com/sketch -->
    <title>border-horizontal</title>
    <desc>Created with Sketch.</desc>
    <defs></defs>
    <g id="Page-1" stroke="none" stroke-width="1" fill="none" fill-rule="evenodd">
        <g id="border-horizontal" fill="#FFFFFF">
            <path d="M0,0 L1,0 L1,2 L0,2 L0,0 Z M1,1 L3,1 L3,2 L1,2 L1,1 Z M5,0 L7,0 L7,1 L5,1 L5,0 Z M7,0 L8,0 L8,2 L7,2 L7,0 Z" id="wisteria-middle-left" fill-opacity="0.25"></path>
            <path d="M1,0 L3,0 L3,1 L1,1 L1,0 Z M3,0 L5,0 L5,1 L3,1 L3,0 Z M3,1 L5,1 L5,2 L3,2 L3,1 Z M5,1 L7,1 L7,2 L5,2 L5,1 Z" id="peter-river-middle-left" fill-opacity="0.75"></path>
        </g>
    </g>
</svg>