<?xml version="1.0" encoding="UTF-8" standalone="no"?>
<svg width="16px" height="16px" viewBox="0 0 16 16" version="1.1" xmlns="http://www.w3.org/2000/svg" xmlns:xlink="http://www.w3.org/1999/xlink">
    <title>icon-white</title>
    <desc>Created with Sketch.</desc>
    <defs></defs>
    <g stroke="none" stroke-width="1" fill="none" fill-rule="evenodd">
        <g fill="#ffffff">
            <path d="M0,11 L1,11 L1,13 L0,13 L0,11 Z M0,13 L1,13 L1,15 L0,15 L0,13 Z M1,13 L2,13 L2,14 L3,14 L3,15 L1,15 L1,13 Z M0,15 L1,15 L1,16 L0,16 L0,15 Z M1,15 L3,15 L3,16 L1,16 L1,15 Z M3,15 L5,15 L5,16 L3,16 L3,15 Z" id="amethyst" fill-opacity="0.75"></path>
            <path d="M1,9 L2,9 L2,11 L1,11 L1,9 Z M1,11 L2,11 L2,13 L1,13 L1,11 Z M0,7 L1,7 L1,9 L0,9 L0,7 Z M0,9 L1,9 L1,11 L0,11 L0,9 Z M3,14 L5,14 L5,15 L3,15 L3,14 Z M5,14 L7,14 L7,15 L5,15 L5,14 Z M5,15 L7,15 L7,16 L5,16 L5,15 Z M7,15 L9,15 L9,16 L7,16 L7,15 Z" id="wisteria" fill-opacity="0.25"></path>
            <path d="M1,5 L2,5 L2,7 L1,7 L1,5 Z M1,7 L2,7 L2,9 L1,9 L1,7 Z M0,3 L1,3 L1,5 L0,5 L0,3 Z M0,5 L1,5 L1,7 L0,7 L0,5 Z M7,14 L9,14 L9,15 L7,15 L7,14 Z M9,14 L11,14 L11,15 L9,15 L9,14 Z M9,15 L11,15 L11,16 L9,16 L9,15 Z M11,15 L13,15 L13,16 L11,16 L11,15 Z" id="peter-river" fill-opacity="0.75"></path>
            <path d="M1,3 L2,3 L2,5 L1,5 L1,3 Z M0,1 L1,1 L1,3 L0,3 L0,1 Z M11,14 L13,14 L13,15 L11,15 L11,14 Z M14,14 L15,14 L15,15 L14,15 L14,14 Z M13,14 L14,14 L14,15 L13,15 L13,14 Z M14,13 L15,13 L15,14 L14,14 L14,13 Z M13,15 L15,15 L15,16 L13,16 L13,15 Z M15,15 L16,15 L16,16 L15,16 L15,15 Z M1,2 L2,2 L2,3 L1,3 L1,2 Z M2,1 L3,1 L3,2 L2,2 L2,1 Z M0,0 L1,0 L1,1 L0,1 L0,0 Z M1,1 L2,1 L2,2 L1,2 L1,1 Z" id="belize-hole" fill-opacity="0.25"></path>
            <path d="M15,13 L16,13 L16,15 L15,15 L15,13 Z M14,11 L15,11 L15,13 L14,13 L14,11 Z M15,11 L16,11 L16,13 L15,13 L15,11 Z M14,9 L15,9 L15,11 L14,11 L14,9 Z M5,1 L7,1 L7,2 L5,2 L5,1 Z M3,1 L5,1 L5,2 L3,2 L3,1 Z M3,0 L5,0 L5,1 L3,1 L3,0 Z M1,0 L3,0 L3,1 L1,1 L1,0 Z" id="turquoise" fill-opacity="0.75"></path>
            <path d="M15,9 L16,9 L16,11 L15,11 L15,9 Z M14,7 L15,7 L15,9 L14,9 L14,7 Z M15,7 L16,7 L16,9 L15,9 L15,7 Z M14,5 L15,5 L15,7 L14,7 L14,5 Z M9,1 L11,1 L11,2 L9,2 L9,1 Z M7,1 L9,1 L9,2 L7,2 L7,1 Z M7,0 L9,0 L9,1 L7,1 L7,0 Z M5,0 L7,0 L7,1 L5,1 L5,0 Z" id="green-sea" fill-opacity="0.25"></path>
            <path d="M11,1 L13,1 L13,2 L11,2 L11,1 Z M15,5 L16,5 L16,7 L15,7 L15,5 Z M14,3 L15,3 L15,5 L14,5 L14,3 Z M13,2 L13,1 L15,1 L15,3 L14,3 L14.0000001,2 L13,2 Z M15,3 L16,3 L16,5 L15,5 L15,3 Z M11,0 L13,0 L13,1 L11,1 L11,0 Z M9,0 L11,0 L11,1 L9,1 L9,0 Z" id="emerald" fill-opacity="0.75"></path>
            <path d="M13,0 L16,0 L16,1 L13,1 L13,0 Z M15,1 L16,1 L16,3 L15,3 L15,1 Z" id="nephritis" fill-opacity="0.25"></path>
            <path d="M7,11 C5.6155599,11 11,11 11,11 L11,13 L5,13 L5,3 L11,3 L11,5 L7,5 L7,7 L9,7 L9,9 L7,9 L7,11 Z" id="wet-asphalt"></path>
        </g>
    </g>
</svg>
