<?xml version="1.0" encoding="UTF-8" standalone="no"?>
<svg width="16px" height="16px" viewBox="0 0 16 16" version="1.1" xmlns="http://www.w3.org/2000/svg" xmlns:xlink="http://www.w3.org/1999/xlink">
    <!-- Generator: Sketch 3.6.1 (26313) - http://www.bohemiancoding.com/sketch -->
    <title>icon</title>
    <desc>Created with Sketch.</desc>
    <defs></defs>
    <g id="Page-1" stroke="none" stroke-width="1" fill="none" fill-rule="evenodd">
        <g id="icon">
            <path d="M0,11 L1,11 L1,13 L0,13 L0,11 Z M0,13 L1,13 L1,15 L0,15 L0,13 Z M1,13 L3,13 L3,15 L1,15 L1,13 Z M0,15 L1,15 L1,16 L0,16 L0,15 Z M1,15 L3,15 L3,16 L1,16 L1,15 Z M3,15 L5,15 L5,16 L3,16 L3,15 Z M5,15 L7,15 L7,16 L5,16 L5,15 Z M0,9 L1,9 L1,11 L0,11 L0,9 Z M1,11 L3,11 L3,13 L1,13 L1,11 Z M3,13 L5,13 L5,15 L3,15 L3,13 Z" id="amethyst" fill="#9B59B6"></path>
            <path d="M1,9 L3,9 L3,11 L1,11 L1,9 Z M1,11 L3,11 L3,13 L1,13 L1,11 Z M0,7 L1,7 L1,9 L0,9 L0,7 Z M0,9 L1,9 L1,11 L0,11 L0,9 Z M3,11 L5,11 L5,13 L3,13 L3,11 Z M3,13 L5,13 L5,15 L3,15 L3,13 Z M5,13 L7,13 L7,15 L5,15 L5,13 Z M5,15 L7,15 L7,16 L5,16 L5,15 Z M7,15 L9,15 L9,16 L7,16 L7,15 Z M9,15 L11,15 L11,16 L9,16 L9,15 Z M1,7 L3,7 L3,9 L1,9 L1,7 Z M0,5 L1,5 L1,7 L0,7 L0,5 Z M3,9 L5,9 L5,11 L3,11 L3,9 Z M5,11 L7,11 L7,13 L5,13 L5,11 Z M7,13 L9,13 L9,15 L7,15 L7,13 Z" id="wisteria" fill="#8E44AD"></path>
            <path d="M3,7 L5,7 L5,9 L3,9 L3,7 Z M3,9 L5,9 L5,11 L3,11 L3,9 Z M1,5 L3,5 L3,7 L1,7 L1,5 Z M1,7 L3,7 L3,9 L1,9 L1,7 Z M0,3 L1,3 L1,5 L0,5 L0,3 Z M0,5 L1,5 L1,7 L0,7 L0,5 Z M5,9 L7,9 L7,11 L5,11 L5,9 Z M5,11 L7,11 L7,13 L5,13 L5,11 Z M7,11 L9,11 L9,13 L7,13 L7,11 Z M7,13 L9,13 L9,15 L7,15 L7,13 Z M9,13 L11,13 L11,15 L9,15 L9,13 Z M9,15 L11,15 L11,16 L9,16 L9,15 Z M11,15 L13,15 L13,16 L11,16 L11,15 Z M13,15 L15,15 L15,16 L13,16 L13,15 Z M3,5 L5,5 L5,7 L3,7 L3,5 Z M1,3 L3,3 L3,5 L1,5 L1,3 Z M0,1 L1,1 L1,3 L0,3 L0,1 Z M5,7 L7,7 L7,9 L5,9 L5,7 Z M7,9 L9,9 L9,11 L7,11 L7,9 Z M9,11 L11,11 L11,13 L9,13 L9,11 Z M11,13 L13,13 L13,15 L11,15 L11,13 Z" id="peter-river" fill="#3498DB"></path>
            <path d="M5,7 L7,7 L7,9 L5,9 L5,7 Z M3,5 L5,5 L5,7 L3,7 L3,5 Z M1,3 L3,3 L3,5 L1,5 L1,3 Z M0,1 L1,1 L1,3 L0,3 L0,1 Z M7,7 L9,7 L9,9 L7,9 L7,7 Z M7,9 L9,9 L9,11 L7,11 L7,9 Z M9,9 L11,9 L11,11 L9,11 L9,9 Z M9,11 L11,11 L11,13 L9,13 L9,11 Z M11,11 L13,11 L13,13 L11,13 L11,11 Z M11,13 L13,13 L13,15 L11,15 L11,13 Z M13,13 L15,13 L15,15 L13,15 L13,13 Z M13,15 L15,15 L15,16 L13,16 L13,15 Z M15,15 L16,15 L16,16 L15,16 L15,15 Z M5,5 L7,5 L7,7 L5,7 L5,5 Z M3,3 L5,3 L5,5 L3,5 L3,3 Z M1,1 L3,1 L3,3 L1,3 L1,1 Z M0,0 L1,0 L1,1 L0,1 L0,0 Z M9,7 L11,7 L11,9 L9,9 L9,7 Z M11,9 L13,9 L13,11 L11,11 L11,9 Z M13,11 L15,11 L15,13 L13,13 L13,11 Z M15,13 L16,13 L16,15 L15,15 L15,13 Z M7,5 L9,5 L9,7 L7,7 L7,5 Z M5,3 L7,3 L7,5 L5,5 L5,3 Z M3,1 L5,1 L5,3 L3,3 L3,1 Z M1,0 L3,0 L3,1 L1,1 L1,0 Z" id="belize-hole" fill="#2980B9"></path>
            <path d="M15,13 L16,13 L16,15 L15,15 L15,13 Z M7,5 L9,5 L9,7 L7,7 L7,5 Z M9,5 L11,5 L11,7 L9,7 L9,5 Z M9,7 L11,7 L11,9 L9,9 L9,7 Z M11,9 L13,9 L13,11 L11,11 L11,9 Z M11,7 L13,7 L13,9 L11,9 L11,7 Z M13,11 L15,11 L15,13 L13,13 L13,11 Z M15,11 L16,11 L16,13 L15,13 L15,11 Z M13,9 L15,9 L15,11 L13,11 L13,9 Z M7,3 L9,3 L9,5 L7,5 L7,3 Z M5,3 L7,3 L7,5 L5,5 L5,3 Z M5,1 L7,1 L7,3 L5,3 L5,1 Z M3,1 L5,1 L5,3 L3,3 L3,1 Z M3,-5.55111512e-17 L5,-5.55111512e-17 L5,1 L3,1 L3,-5.55111512e-17 Z M11,5 L13,5 L13,7 L11,7 L11,5 Z M13,7 L15,7 L15,9 L13,9 L13,7 Z M15,9 L16,9 L16,11 L15,11 L15,9 Z M9,3 L11,3 L11,5 L9,5 L9,3 Z M7,1 L9,1 L9,3 L7,3 L7,1 Z M5,-5.55111512e-17 L7,-5.55111512e-17 L7,1 L5,1 L5,-5.55111512e-17 Z M1,-5.55111512e-17 L3,-5.55111512e-17 L3,1 L1,1 L1,-5.55111512e-17 Z" id="turquoise" fill="#1ABC9C"></path>
            <path d="M9,3 L11,3 L11,5 L9,5 L9,3 Z M11,5 L13,5 L13,7 L11,7 L11,5 Z M11,3 L13,3 L13,5 L11,5 L11,3 Z M15,9 L16,9 L16,11 L15,11 L15,9 Z M13,7 L15,7 L15,9 L13,9 L13,7 Z M15,7 L16,7 L16,9 L15,9 L15,7 Z M13,5 L15,5 L15,7 L13,7 L13,5 Z M9,1 L11,1 L11,3 L9,3 L9,1 Z M7,1 L9,1 L9,3 L7,3 L7,1 Z M7,0 L9,0 L9,1 L7,1 L7,0 Z M13,3 L15,3 L15,5 L13,5 L13,3 Z M15,5 L16,5 L16,7 L15,7 L15,5 Z M11,1 L13,1 L13,3 L11,3 L11,1 Z M9,0 L11,0 L11,1 L9,1 L9,0 Z M5,0 L7,0 L7,1 L5,1 L5,0 Z" id="green-sea" fill="#16A085"></path>
            <path d="M11,1 L13,1 L13,3 L11,3 L11,1 Z M15,5 L16,5 L16,7 L15,7 L15,5 Z M13,3 L15,3 L15,5 L13,5 L13,3 Z M13,1 L15,1 L15,3 L13,3 L13,1 Z M15,1 L16,1 L16,3 L15,3 L15,1 Z M15,3 L16,3 L16,5 L15,5 L15,3 Z M11,0 L13,0 L13,1 L11,1 L11,0 Z M13,0 L15,0 L15,1 L13,1 L13,0 Z M9,0 L11,0 L11,1 L9,1 L9,0 Z" id="emerald" fill="#2ECC71"></path>
            <path d="M15,0 L16,0 L16,1 L15,1 L15,0 Z M15,1 L16,1 L16,3 L15,3 L15,1 Z M13,0 L15,0 L15,1 L13,1 L13,0 Z" id="nephritis" fill="#27AE60"></path>
            <rect id="clouds" fill="#ECF0F1" x="2" y="2" width="12" height="12"></rect>
            <path d="M7,11 C5.6155599,11 11,11 11,11 L11,13 L5,13 L5,3 L11,3 L11,5 L7,5 L7,7 L9,7 L9,9 L7,9 L7,11 Z" id="wet-asphalt" fill="#34495E"></path>
        </g>
    </g>
</svg>