<svg height="1024" width="1024" xmlns="http://www.w3.org/2000/svg" xmlns:xlink="http://www.w3.org/1999/xlink"><defs><linearGradient id="a" x1="0%" y1="0%" x2="0%" y2="100%"><stop offset="0%" stop-color="#f8f8f8"/><stop offset="100%" stop-color="#ccc"/></linearGradient><radialGradient id="b" fx="50%" fy="48%"><stop offset="0%" stop-color="#00f0ff"/><stop offset="100%" stop-color="#0070e0"/></radialGradient></defs><circle cx="512" cy="512" r="480" fill="url(#a)"/><circle cx="512" cy="512" r="440" fill="url(#b)"/><g stroke="#ddd" stroke-width="10" stroke-linecap="round"><g id="f"><g id="e"><g id="d"><g id="c"><path d="M512 100v70m0 754v-70"/><path transform="rotate(5.625 512 512)" d="M512 100v30m0 794v-30"/></g><use xlink:href="#c" transform="rotate(90 512 512)"/></g><use xlink:href="#d" transform="rotate(45 512 512)"/></g><use xlink:href="#e" transform="rotate(22.5 512 512)"/></g><use xlink:href="#f" transform="rotate(11.25 512 512)"/></g><path fill="#ddd" d="M210.065 813.935L468.16 468.159 512 512z"/><path fill="#e44" d="M468.16 468.16l345.775-258.095L512 512z"/><path fill="#c00" d="M813.935 210.065L555.84 555.841 512 512z"/><path fill="#aaa" d="M210.065 813.935L555.841 555.84 512 512z"/></svg>