<?xml version="1.0" encoding="UTF-8" standalone="no"?>
<svg width="512px" height="512px" viewBox="0 0 512 512" version="1.1" xmlns="http://www.w3.org/2000/svg" xmlns:xlink="http://www.w3.org/1999/xlink">
    <!-- Generator: Sketch 3.6.1 (26313) - http://www.bohemiancoding.com/sketch -->
    <title>icon</title>
    <desc>Created with Sketch.</desc>
    <defs></defs>
    <g id="Page-1" stroke="none" stroke-width="1" fill="none" fill-rule="evenodd">
        <g id="icon">
            <g id="art" transform="translate(-32.000000, -32.000000)">
                <rect id="Rectangle-2" fill="#1FC8DB" x="192" y="128" width="64" height="320"></rect>
                <rect id="cell" fill="#95A5A6" x="128" y="64" width="64" height="64"></rect>
                <rect id="cell" fill="#95A5A6" x="128" y="448" width="64" height="64"></rect>
                <rect id="cell" fill="#95A5A6" x="384" y="448" width="64" height="64"></rect>
                <rect id="cell" fill="#95A5A6" x="384" y="64" width="64" height="64"></rect>
                <rect id="cell" fill="#95A5A6" x="64" y="64" width="64" height="64"></rect>
                <rect id="cell" fill="#95A5A6" x="64" y="448" width="64" height="64"></rect>
                <rect id="cell" fill="#95A5A6" x="64" y="128" width="64" height="320"></rect>
                <rect id="Rectangle-13" fill="#95A5A6" x="448" y="64" width="64" height="448"></rect>
                <rect id="s2" fill="#1FC8DB" x="256" y="128" width="128" height="64"></rect>
                <rect id="s1" fill="#1FC8DB" x="256" y="384" width="128" height="64"></rect>
                <rect id="xs1" fill="#1FC8DB" x="256" y="256" width="64" height="64"></rect>
                <g id="border-symmetric">
                    <g id="left" transform="translate(0.000000, 64.000000)">
                        <rect id="left-8" fill="#E74C3C" x="0" y="0" width="64" height="64"></rect>
                        <rect id="left-7" fill="#E67E22" x="0" y="64" width="64" height="64"></rect>
                        <rect id="left-6" fill="#F1C40F" x="0" y="128" width="64" height="64"></rect>
                        <rect id="left-5" fill="#34495E" x="0" y="192" width="64" height="64"></rect>
                        <rect id="left-4" fill="#9B59B6" x="0" y="256" width="64" height="64"></rect>
                        <rect id="left-3" fill="#3498DB" x="0" y="320" width="64" height="64"></rect>
                        <rect id="left-2" fill="#2ECC71" x="0" y="384" width="64" height="64"></rect>
                        <rect id="left-1" fill="#1ABC9C" x="0" y="448" width="64" height="64"></rect>
                    </g>
                    <g id="bottom" transform="translate(64.000000, 512.000000)">
                        <rect id="bottom-8" fill="#E74C3C" x="0" y="0" width="64" height="64"></rect>
                        <rect id="bottom-7" fill="#E67E22" x="64" y="0" width="64" height="64"></rect>
                        <rect id="bottom-6" fill="#F1C40F" x="128" y="0" width="64" height="64"></rect>
                        <rect id="bottom-5" fill="#34495E" x="192" y="0" width="64" height="64"></rect>
                        <rect id="bottom-4" fill="#9B59B6" x="256" y="0" width="64" height="64"></rect>
                        <rect id="bottom-3" fill="#3498DB" x="320" y="0" width="64" height="64"></rect>
                        <rect id="bottom-2" fill="#2ECC71" x="384" y="0" width="64" height="64"></rect>
                        <rect id="bottom-1" fill="#1ABC9C" x="448" y="0" width="64" height="64"></rect>
                    </g>
                    <g id="right" transform="translate(512.000000, 0.000000)">
                        <rect id="right-1" fill="#1ABC9C" x="0" y="0" width="64" height="64"></rect>
                        <rect id="right-2" fill="#2ECC71" x="0" y="64" width="64" height="64"></rect>
                        <rect id="right-3" fill="#3498DB" x="0" y="128" width="64" height="64"></rect>
                        <rect id="right-4" fill="#9B59B6" x="0" y="192" width="64" height="64"></rect>
                        <rect id="right-5" fill="#34495E" x="0" y="256" width="64" height="64"></rect>
                        <rect id="right-6" fill="#F1C40F" x="0" y="320" width="64" height="64"></rect>
                        <rect id="right-7" fill="#E67E22" x="0" y="384" width="64" height="64"></rect>
                        <rect id="right-8" fill="#E74C3C" x="0" y="448" width="64" height="64"></rect>
                    </g>
                    <g id="top">
                        <rect id="top-8" fill="#E74C3C" x="448" y="0" width="64" height="64"></rect>
                        <rect id="top-7" fill="#E67E22" x="384" y="0" width="64" height="64"></rect>
                        <rect id="top-6" fill="#F1C40F" x="320" y="0" width="64" height="64"></rect>
                        <rect id="top-5" fill="#34495E" x="256" y="0" width="64" height="64"></rect>
                        <rect id="top-4" fill="#9B59B6" x="192" y="0" width="64" height="64"></rect>
                        <rect id="top-3" fill="#3498DB" x="128" y="0" width="64" height="64"></rect>
                        <rect id="top-2" fill="#2ECC71" x="64" y="0" width="64" height="64"></rect>
                        <rect id="top-1" fill="#1ABC9C" x="0" y="0" width="64" height="64"></rect>
                    </g>
                </g>
            </g>
        </g>
    </g>
</svg>